<?xml version="1.0" encoding="utf-8"?>
<!-- Generator: Adobe Illustrator 16.0.0, SVG Export Plug-In . SVG Version: 6.00 Build 0)  -->
<!DOCTYPE svg PUBLIC "-//W3C//DTD SVG 1.1//EN" "http://www.w3.org/Graphics/SVG/1.1/DTD/svg11.dtd">
<svg version="1.1" id="레이어_1" xmlns="http://www.w3.org/2000/svg" xmlns:xlink="http://www.w3.org/1999/xlink" x="0px"
	 y="0px" width="326.595px" height="154.255px" viewBox="0 0 326.595 154.255" enable-background="new 0 0 326.595 154.255"
	 xml:space="preserve">
<g>
	<path fill-rule="evenodd" clip-rule="evenodd" d="M256.101,106.025v26.145h-20.354V47.595h20.309v4.442
		c4.968-4.26,11.023-6.732,17.207-6.758c19.676-0.075,27.568,12.793,27.655,35.189c0,19.643-11.83,31.473-26.897,31.658
		C267.927,112.126,259.649,109.207,256.101,106.025L256.101,106.025z M42.359,74.366H21.361
		c-2.282,25.915,12.02,41.661,36.97,41.661c22.911,0,34.221-10.436,34.221-33.221V24.38H71.727v58.264
		c-0.119,9.014-5.846,15.158-15.196,14.637c-6.768-0.375-13.911-3.645-14.172-15.625V74.366L42.359,74.366z M186.987,86.3h42.33
		c2.879-26.169-11.443-40.707-31.793-40.707c-17.621,0-31.151,13.82-31.151,35.425c0,22.107,13.636,34.168,31.259,34.168
		c12.793,0,26.639-5.398,30.416-21.73h-20.873c-1.574,3.895-4.721,5.781-8.184,5.781C193.223,99.238,187.411,94.277,186.987,86.3
		C186.987,86.3,187.411,94.277,186.987,86.3L186.987,86.3z M256.01,76.002l0.02,7.031c0,10.166,5.606,14.301,12.522,14.301
		c6.912,0,11.757-9.061,11.757-17.336v-3.94c0-10.167-4.845-15.729-11.757-15.729C261.636,60.329,256.01,65.835,256.01,76.002
		L256.01,76.002z M186.987,72.978h21.026c0-6.027-4.513-11.428-9.648-11.428C191.858,61.549,187.583,65.451,186.987,72.978
		L186.987,72.978z M119.726,86.3h42.327c2.879-26.169-11.442-40.707-31.792-40.707c-17.619,0-31.151,13.82-31.151,35.425
		c0,22.107,13.636,34.168,31.26,34.168c12.79,0,26.637-5.398,30.414-21.73h-20.872c-1.574,3.895-4.723,5.781-8.183,5.781
		C125.961,99.238,120.147,94.277,119.726,86.3C119.726,86.3,120.147,94.277,119.726,86.3L119.726,86.3z M119.726,72.978h21.024
		c0-6.027-4.513-11.428-9.649-11.428C124.597,61.549,120.321,65.451,119.726,72.978L119.726,72.978z M307.524,116.257
		c3.801,0,6.884,3.08,6.884,6.881c0,3.844-3.083,6.924-6.884,6.924c-3.821,0-6.904-3.08-6.904-6.924
		C300.62,119.337,303.703,116.257,307.524,116.257v-0.945c-4.357,0-7.869,3.512-7.869,7.826c0,4.357,3.512,7.869,7.869,7.869
		c4.335,0,7.827-3.512,7.827-7.869c0-4.314-3.492-7.826-7.827-7.826V116.257L307.524,116.257z M305.674,119.544h2.506
		c1.09,0,2.282,0.164,2.282,1.52c0,1.789-1.91,1.582-3.145,1.582h-1.644v0.844h1.972l2.508,4.045h1.273l-2.649-4.045
		c1.56-0.043,2.772-0.68,2.772-2.406c0-0.738-0.328-1.52-0.987-1.891c-0.656-0.389-1.396-0.43-2.136-0.43h-3.82v8.771h1.067V119.544
		L305.674,119.544z"/>
</g>
</svg>
